<svg width="16" height="16" viewBox="0 0 16 16" fill="none" xmlns="http://www.w3.org/2000/svg">
<path fill-rule="evenodd" clip-rule="evenodd" d="M3.31181 4.25226C2.4898 5.27922 1.99821 6.58214 1.99821 7.99988C1.99821 11.3145 4.68525 14.0015 7.99988 14.0015C9.41762 14.0015 10.7205 13.51 11.7475 12.688L3.31181 4.25226ZM2.67758 2.95739C1.43216 4.27148 0.668213 6.04647 0.668213 7.99988C0.668213 12.049 3.95071 15.3315 7.99988 15.3315C9.95329 15.3315 11.7283 14.5676 13.0424 13.3222C13.1003 13.2917 13.1547 13.2522 13.2034 13.2034C13.2522 13.1547 13.2917 13.1003 13.3222 13.0424C14.5676 11.7283 15.3315 9.95329 15.3315 7.99988C15.3315 3.95071 12.049 0.668213 7.99988 0.668213C6.04647 0.668213 4.27148 1.43216 2.95739 2.67758C2.89944 2.70802 2.84504 2.7476 2.79632 2.79632C2.7476 2.84504 2.70802 2.89944 2.67758 2.95739ZM4.25226 3.31181L12.688 11.7475C13.51 10.7205 14.0015 9.41762 14.0015 7.99988C14.0015 4.68525 11.3145 1.99821 7.99988 1.99821C6.58214 1.99821 5.27922 2.4898 4.25226 3.31181Z" fill="#999999"/>
</svg>
