<svg width="16" height="17" viewBox="0 0 16 17" fill="none" xmlns="http://www.w3.org/2000/svg">
<path fill-rule="evenodd" clip-rule="evenodd" d="M1.99996 3.58496C2.36723 3.58496 2.66496 3.88269 2.66496 4.24996V6.91663C2.66496 7.28269 2.96723 7.58496 3.33329 7.58496H5.33329C5.70056 7.58496 5.99829 7.88269 5.99829 8.24996C5.99829 8.61723 5.70056 8.91496 5.33329 8.91496H3.33329C3.0991 8.91496 2.87409 8.87431 2.66496 8.79971V10.9166C2.66496 11.2827 2.96723 11.585 3.33329 11.585H5.33329C5.70056 11.585 5.99829 11.8827 5.99829 12.25C5.99829 12.6172 5.70056 12.915 5.33329 12.915H3.33329C2.23269 12.915 1.33496 12.0172 1.33496 10.9166V4.24996C1.33496 3.88269 1.63269 3.58496 1.99996 3.58496ZM4.66829 4.24996C4.66829 3.88269 4.96602 3.58496 5.33329 3.58496H14C14.3672 3.58496 14.665 3.88269 14.665 4.24996C14.665 4.61723 14.3672 4.91496 14 4.91496H5.33329C4.96602 4.91496 4.66829 4.61723 4.66829 4.24996ZM8.00163 8.24996C8.00163 7.88269 8.29936 7.58496 8.66663 7.58496H14C14.3672 7.58496 14.665 7.88269 14.665 8.24996C14.665 8.61723 14.3672 8.91496 14 8.91496H8.66663C8.29936 8.91496 8.00163 8.61723 8.00163 8.24996ZM8.00163 12.25C8.00163 11.8827 8.29936 11.585 8.66663 11.585H14C14.3672 11.585 14.665 11.8827 14.665 12.25C14.665 12.6172 14.3672 12.915 14 12.915H8.66663C8.29936 12.915 8.00163 12.6172 8.00163 12.25Z" fill="#E6E6E6"/>
</svg>
