<svg width="16" height="16" viewBox="0 0 16 16" fill="none" xmlns="http://www.w3.org/2000/svg">
<path fill-rule="evenodd" clip-rule="evenodd" d="M3.33329 2.66496C3.15604 2.66496 2.98605 2.73537 2.86071 2.86071C2.73537 2.98605 2.66496 3.15604 2.66496 3.33329V12.6666C2.66496 12.8439 2.73537 13.0139 2.86071 13.1392C2.98605 13.2645 3.15604 13.335 3.33329 13.335H5.99996C6.36723 13.335 6.66496 13.6327 6.66496 14C6.66496 14.3672 6.36723 14.665 5.99996 14.665H3.33329C2.8033 14.665 2.29502 14.4544 1.92026 14.0797C1.5455 13.7049 1.33496 13.1966 1.33496 12.6666V3.33329C1.33496 2.8033 1.5455 2.29502 1.92026 1.92026C2.29502 1.5455 2.8033 1.33496 3.33329 1.33496H5.99996C6.36723 1.33496 6.66496 1.63269 6.66496 1.99996C6.66496 2.36723 6.36723 2.66496 5.99996 2.66496H3.33329ZM10.1964 4.1964C10.4561 3.9367 10.8772 3.9367 11.1369 4.1964L14.4702 7.52974C14.7299 7.78943 14.7299 8.21049 14.4702 8.47019L11.1369 11.8035C10.8772 12.0632 10.4561 12.0632 10.1964 11.8035C9.9367 11.5438 9.9367 11.1228 10.1964 10.8631L12.3945 8.66496H5.99996C5.63269 8.66496 5.33496 8.36723 5.33496 7.99996C5.33496 7.63269 5.63269 7.33496 5.99996 7.33496H12.3945L10.1964 5.13685C9.9367 4.87716 9.9367 4.4561 10.1964 4.1964Z" fill="#E6E6E6"/>
</svg>
