<svg width="157" height="32" viewBox="0 0 157 32" fill="none" xmlns="http://www.w3.org/2000/svg">
<path fill-rule="evenodd" clip-rule="evenodd" d="M33.1921 14.4504L26.2326 1.53594C25.68 0.62207 24.7483 0.0516826 23.7329 0.00554786H18.544C18.4964 -0.00184929 18.4482 -0.00184929 18.4006 0.00554786H9.80573C8.78992 0.0512048 7.85862 0.624351 7.31011 1.54142L0.348583 14.4504C-0.116194 15.4189 -0.116194 16.568 0.348583 17.5365L7.31215 30.4575C7.86045 31.3747 8.79014 31.9498 9.80573 32H23.7329C24.7492 31.9505 25.6798 31.3753 26.2285 30.4575L33.1921 17.5365C33.6568 16.568 33.6568 15.4189 33.1921 14.4504ZM25.3662 2.07349L27.9079 6.79082L23.4554 14.954L20.5409 9.60695C20.4515 9.4433 20.2878 9.34268 20.1108 9.34256H14.3259L18.756 1.07517H23.7329C24.3896 1.12258 24.99 1.48962 25.3621 2.0713L25.3662 2.07349ZM17.0868 15.5014L14.3116 10.4111H19.8261L22.6033 15.5003L17.0868 15.5014ZM16.1805 16.0181L13.437 21.0525L10.6833 15.994L13.4258 10.9596L16.1805 16.0181ZM17.0581 16.5776H22.5439L19.8189 21.5813H14.3116L17.0581 16.5776ZM8.18158 2.07349C8.5529 1.49488 9.15162 1.1309 9.80573 1.08615H17.5978L13.1728 9.34256H4.26354L8.18158 2.07349ZM1.21801 14.988L3.6829 10.4111H12.5656L9.66748 15.7219C9.57601 15.8889 9.57601 16.0958 9.66748 16.2628L12.5656 21.5802H3.6829L1.21493 17.0077C0.927916 16.3707 0.927916 15.6283 1.21493 14.9913L1.21801 14.988ZM9.80573 30.926C9.14694 30.8758 8.54622 30.504 8.17645 29.9178L4.25637 22.6498H13.139L17.608 30.926H9.80573ZM25.3611 29.9178C24.9916 30.5038 24.3913 30.8754 23.7329 30.926H18.7672L14.2972 22.6465H20.1036C20.2806 22.6464 20.4443 22.5458 20.5337 22.3821L23.4257 17.0812L27.8721 25.263L25.3611 29.9178ZM32.3247 16.9967L28.4517 24.189L24.0217 16.0324L28.4876 7.85496L32.3319 14.9858C32.6189 15.6228 32.6189 16.3652 32.3319 17.0022" fill="white"/>
<path fill-rule="evenodd" clip-rule="evenodd" d="M76.415 9.34256L76.6631 9.34866C79.2307 9.46525 81.448 11.2322 82.1385 13.7448C82.2802 14.2554 82.3519 14.7831 82.3517 15.3132V18.0479C82.35 18.5653 82.2799 19.0801 82.143 19.5788C81.4421 22.1973 79.0839 24.0166 76.3909 24.0166C73.6978 24.0166 71.3397 22.1973 70.6387 19.5788C70.492 19.0813 70.4105 18.5667 70.3965 18.0479V15.3132C70.4103 14.7812 70.496 14.2535 70.6514 13.7448C71.3821 11.1455 73.7355 9.34898 76.4181 9.34256H76.415ZM132.075 9.34256L132.324 9.34867C134.894 9.46527 137.113 11.2324 137.804 13.7453C137.946 14.256 138.018 14.7838 138.018 15.314V18.049C138.017 18.5663 137.948 19.0812 137.813 19.5802C137.111 22.1979 134.752 24.0166 132.057 24.0166C129.362 24.0166 127.003 22.1979 126.301 19.5802C126.154 19.083 126.073 18.5679 126.063 18.049V15.314C126.074 14.7823 126.157 14.2545 126.31 13.7453C127.039 11.1463 129.393 9.34922 132.078 9.34256H132.075ZM49.4051 9.34464C50.4151 9.32077 51.418 9.52142 52.3422 9.93231C53.1138 10.2687 53.7873 10.7979 54.2989 11.4697C54.7427 12.0441 55.007 12.7384 55.0583 13.4643V13.6712H51.2329C51.1231 13.491 50.9693 13.3421 50.7862 13.2387C50.3677 12.994 49.8886 12.8746 49.4051 12.8946C48.9067 12.8647 48.4096 12.9706 47.9659 13.2012C47.7625 13.3158 47.6498 13.5444 47.6823 13.7769C47.6823 14.1239 48.0411 14.2431 48.4752 14.4237C49.1163 14.6744 49.7707 14.8889 50.4355 15.0661C51.3423 15.2946 52.2285 15.5995 53.0845 15.9776C53.7741 16.2776 54.3749 16.7522 54.8282 17.3553C55.2583 17.9928 55.476 18.7502 55.4506 19.5193C55.4798 20.8708 54.8203 22.1434 53.7025 22.8924C52.4461 23.6864 50.9793 24.076 49.4974 24.0093C48.4547 24.0337 47.4174 23.8511 46.4449 23.4718C45.6144 23.1616 44.8802 22.6356 44.317 21.9472C43.8225 21.337 43.5355 20.5833 43.498 19.7967L43.498 19.7212L43.5025 19.6752H47.3197C47.4348 19.916 47.6175 20.1175 47.8453 20.2547C48.938 20.735 50.181 20.7303 51.2701 20.2419C51.5057 20.1032 51.6419 19.8412 51.6208 19.5673C51.6208 19.3784 51.6208 19.3492 51.5166 19.2442C51.2929 19.0443 51.0298 18.8941 50.7445 18.8035C50.2747 18.6228 49.5488 18.3957 48.5854 18.1229C47.7272 17.9078 46.8939 17.6023 46.0994 17.2114C45.4362 16.8915 44.8681 16.402 44.4518 15.7917C44.0483 15.1483 43.845 14.3981 43.8681 13.6374C43.8605 12.8275 44.1122 12.0367 44.5858 11.382C45.0988 10.7007 45.7869 10.1735 46.5759 9.85735C47.4748 9.49565 48.4373 9.32123 49.4051 9.34464ZM60.8439 9.71882C61.325 9.75421 61.76 10.0156 62.0141 10.422L65.364 16.2125V9.71882H68.8956L68.9008 22.2714C68.9169 22.629 68.7847 22.9775 68.5349 23.2361C68.2851 23.4946 67.9395 23.6407 67.5784 23.6403H65.3858L60.8145 15.8404L60.8148 22.3963C60.7974 22.7028 60.6724 22.9955 60.4588 23.2221C60.2096 23.4865 59.8616 23.6377 59.4966 23.6403H57.3206V9.71882H60.8439ZM119.771 9.71882V20.1805H124.191V22.2041C124.219 22.5678 124.099 22.9273 123.858 23.1987C123.617 23.4702 123.276 23.6298 122.916 23.6403H116.349V9.71882H119.771ZM109.619 9.71882C112.314 9.75202 114.481 11.9448 114.481 14.6384C114.481 17.332 112.314 19.5248 109.619 19.558H106.364L106.364 22.3963C106.347 22.7028 106.223 22.9955 106.011 23.2221C105.764 23.4865 105.419 23.6377 105.057 23.6403H102.9V9.71882H109.619ZM92.7463 9.71882C93.3416 9.74475 93.848 10.1666 93.9874 10.7529C94.0644 11.018 94.6969 13.16 95.3915 15.5045L95.5467 16.0281L97.3666 9.71882H101.032C101.032 9.71882 100.182 12.6268 99.2945 15.6649L99.0969 16.3411C98.2079 19.3833 97.3402 22.3499 97.3046 22.463C97.268 22.5781 97.2223 22.69 97.168 22.7977C96.9579 23.2985 96.477 23.6279 95.9395 23.6391H94.1565L93.7342 22.253L91.8884 15.9855L91.6428 16.8305C90.7982 19.7348 89.9899 22.4935 89.9481 22.6005C89.7736 23.2365 89.1889 23.6669 88.5372 23.6391L86.8332 23.6361L82.7253 9.71957H85.3212C85.9492 9.70575 86.5035 10.1328 86.6575 10.7492C86.7358 11.0384 87.4726 13.4705 88.2293 15.9953L90.0412 9.71882H92.7463ZM148.412 9.71882C149.007 9.74475 149.514 10.1666 149.653 10.7529C149.73 11.018 150.363 13.16 151.057 15.5045L151.213 16.0281L153.033 9.71882H156.698C156.698 9.71882 153.044 22.2284 152.97 22.463C152.933 22.5781 152.888 22.69 152.833 22.7977C152.623 23.2985 152.142 23.6279 151.605 23.6391H149.822L149.4 22.253L147.554 15.9855L147.309 16.8305C146.464 19.7348 145.656 22.4935 145.614 22.6005C145.439 23.2365 144.855 23.6669 144.203 23.6391L142.499 23.6361L138.391 9.71957H140.987C141.615 9.70575 142.169 10.1328 142.323 10.7492C142.401 11.0384 143.138 13.4705 143.895 15.9953L145.707 9.71882H148.412ZM132.053 13.1697C131.446 13.1697 130.862 13.4079 130.427 13.8339C129.986 14.251 129.729 14.8278 129.712 15.4363V18.049C129.729 18.5849 129.936 19.0969 130.297 19.4916C130.746 20.0068 131.392 20.3051 132.073 20.312C132.739 20.3048 133.368 20.0051 133.796 19.4916C134.143 19.0924 134.335 18.5798 134.335 18.049L134.339 18.0483L134.339 17.7206C134.337 17.0495 134.331 15.8429 134.331 15.4363C134.329 14.8296 134.08 14.2503 133.641 13.8339C133.217 13.4145 132.648 13.1765 132.053 13.1697ZM76.389 13.1692C75.7823 13.1695 75.1996 13.4077 74.7644 13.8333C74.3243 14.251 74.0661 14.8269 74.046 15.4355V18.0479C74.0643 18.5842 74.2732 19.096 74.6347 19.4903C75.0854 20.0052 75.732 20.3033 76.4136 20.3105C77.0784 20.3032 77.7068 20.0035 78.1336 19.4903C78.4808 19.0911 78.6722 18.5785 78.6724 18.0479L78.6718 17.7195C78.6699 17.0485 78.6642 15.842 78.6642 15.4355C78.6624 14.829 78.4135 14.2498 77.9756 13.8333C77.5518 13.4139 76.9832 13.1759 76.389 13.1692ZM109.61 13.2556H106.364V16.0205H109.627C110.391 16.016 111.006 15.3933 111.002 14.6298C110.997 13.8663 110.374 13.2511 109.61 13.2556Z" fill="white"/>
</svg>
