<svg width="37" height="33" viewBox="0 0 37 33" fill="none" xmlns="http://www.w3.org/2000/svg">
<path fill-rule="evenodd" clip-rule="evenodd" d="M36.1913 14.724L28.603 1.56502C28.0005 0.633848 26.9846 0.0526611 25.8774 0.0056529H20.2196C20.1678 -0.0018843 20.1152 -0.0018843 20.0633 0.0056529H10.6918C9.58419 0.0521743 8.56874 0.636172 7.97066 1.57061L0.380082 14.724C-0.126694 15.7108 -0.126694 16.8817 0.380082 17.8685L7.97289 31.0342C8.57074 31.9687 9.58443 32.5547 10.6918 32.6058H25.8774C26.9856 32.5554 28.0002 31.9694 28.5985 31.0342L36.1913 17.8685C36.6981 16.8817 36.6981 15.7108 36.1913 14.724ZM27.6584 2.11275L30.4297 6.91939L25.5748 15.2371L22.397 9.78884C22.2995 9.62209 22.121 9.51957 21.928 9.51945H15.6204L20.4508 1.09553H25.8774C26.5935 1.14384 27.2481 1.51783 27.6539 2.11051L27.6584 2.11275ZM18.6307 15.7949L15.6048 10.6082H21.6176L24.6458 15.7938L18.6307 15.7949ZM17.6426 16.3214L14.6512 21.4511L11.6487 16.2968L14.6389 11.1671L17.6426 16.3214ZM18.5995 16.8915H24.581L21.6098 21.9899H15.6048L18.5995 16.8915ZM8.92088 2.11275C9.32575 1.52318 9.97857 1.15231 10.6918 1.10671H19.1879L14.3631 9.51945H4.6488L8.92088 2.11275ZM1.32807 15.2718L4.0157 10.6082H13.701L10.541 16.0196C10.4413 16.1897 10.4413 16.4005 10.541 16.5707L13.701 21.9888H4.0157L1.32472 17.3297C1.01177 16.6807 1.01177 15.9241 1.32472 15.2751L1.32807 15.2718ZM10.6918 31.5115C9.97347 31.4603 9.31847 31.0816 8.91529 30.4842L4.64099 23.0786H14.3263L19.1991 31.5115H10.6918ZM27.6528 30.4842C27.2498 31.0813 26.5953 31.46 25.8774 31.5115H20.4631L15.5892 23.0753H21.9202C22.1132 23.0752 22.2917 22.9726 22.3892 22.8059L25.5424 17.4046L30.3907 25.7413L27.6528 30.4842ZM35.2456 17.3185L31.0227 24.6469L26.1923 16.3359L31.0617 8.00368L35.2534 15.2695C35.5664 15.9186 35.5664 16.6751 35.2534 17.3241" fill="#ffffff"/>
</svg>
