<svg width="12" height="4" viewBox="0 0 12 4" fill="none" xmlns="http://www.w3.org/2000/svg">
<path fill-rule="evenodd" clip-rule="evenodd" d="M1.33172 1.99924C1.33171 1.9994 1.33171 1.99961 1.33171 1.99988C1.33171 2.00063 1.33175 2.00092 1.33175 2.00092C1.33175 2.00092 1.33171 2.00067 1.33157 2.00032C1.33154 2.00026 1.33152 2.00023 1.33153 2.00023C1.33153 2.00023 1.33171 2.00057 1.3322 2.00106C1.33268 2.00154 1.33302 2.00172 1.33302 2.00173C1.33303 2.00173 1.333 2.00172 1.33293 2.00169C1.33258 2.00154 1.33233 2.0015 1.33233 2.0015C1.33233 2.0015 1.33262 2.00155 1.33338 2.00155C1.33413 2.00155 1.33442 2.0015 1.33442 2.0015C1.33442 2.0015 1.33417 2.00154 1.33382 2.00169C1.33376 2.00172 1.33373 2.00173 1.33373 2.00173C1.33373 2.00173 1.33406 2.00155 1.33455 2.00106C1.33504 2.00057 1.33522 2.00023 1.33523 2.00023C1.33523 2.00023 1.33521 2.00026 1.33518 2.00032C1.33504 2.00067 1.335 2.00092 1.335 2.00092C1.335 2.00092 1.33504 2.00063 1.33504 1.99988C1.33504 1.99912 1.335 1.99884 1.335 1.99884C1.335 1.99884 1.33504 1.99909 1.33518 1.99943C1.33521 1.9995 1.33523 1.99953 1.33523 1.99953C1.33522 1.99953 1.33504 1.99919 1.33455 1.9987C1.33406 1.99821 1.33373 1.99803 1.33373 1.99803C1.33373 1.99803 1.33376 1.99804 1.33382 1.99807C1.33417 1.99822 1.33442 1.99826 1.33442 1.99826C1.33442 1.99826 1.33413 1.99821 1.33338 1.99821C1.33263 1.99821 1.33234 1.99826 1.33233 1.99826C1.33233 1.99826 1.33258 1.99822 1.33293 1.99807C1.33301 1.99804 1.33304 1.99802 1.33302 1.99803C1.33299 1.99805 1.33266 1.99824 1.3322 1.9987C1.33198 1.99891 1.33183 1.9991 1.33172 1.99924ZM0.00170898 1.99988C0.00170898 1.26442 0.597916 0.668213 1.33338 0.668213C2.06883 0.668213 2.66504 1.26442 2.66504 1.99988C2.66504 2.73534 2.06883 3.33155 1.33338 3.33155C0.597916 3.33155 0.00170898 2.73534 0.00170898 1.99988ZM4.66838 1.99988C4.66838 1.26442 5.26458 0.668213 6.00004 0.668213C6.7355 0.668213 7.33171 1.26442 7.33171 1.99988C7.33171 2.73534 6.7355 3.33155 6.00004 3.33155C5.26458 3.33155 4.66838 2.73534 4.66838 1.99988ZM10.6651 1.99924C10.665 1.9994 10.665 1.99961 10.665 1.99988C10.665 2.00063 10.6651 2.00092 10.6651 2.00092C10.6651 2.00092 10.665 2.00067 10.6649 2.00032C10.6648 2.0002 10.6648 2.0002 10.6649 2.00031C10.665 2.00043 10.6652 2.00071 10.6655 2.00106C10.666 2.00149 10.6663 2.00168 10.6663 2.00172C10.6664 2.00174 10.6664 2.00173 10.6663 2.00169C10.6658 2.0015 10.6655 2.00149 10.6657 2.00151C10.6659 2.00152 10.6662 2.00155 10.6667 2.00155C10.667 2.00155 10.6672 2.00154 10.6673 2.00153M10.6661 1.99823C10.666 1.99826 10.666 1.99829 10.6659 1.99833C10.6658 1.99842 10.6657 1.99855 10.6655 1.9987C10.6653 1.99892 10.6652 1.9991 10.6651 1.99924M9.33504 1.99988C9.33504 1.26442 9.93125 0.668213 10.6667 0.668213C11.4022 0.668213 11.9984 1.26442 11.9984 1.99988C11.9984 2.73534 11.4022 3.33155 10.6667 3.33155C9.93125 3.33155 9.33504 2.73534 9.33504 1.99988Z" fill="#999999"/>
</svg>
