<svg width="18" height="18" viewBox="0 0 18 18" fill="none" xmlns="http://www.w3.org/2000/svg">
<path fill-rule="evenodd" clip-rule="evenodd" d="M8.16658 2.33343C4.94488 2.33343 2.33319 4.94513 2.33319 8.16682C2.33319 11.3885 4.94488 14.0002 8.16658 14.0002C11.3883 14.0002 14 11.3885 14 8.16682C14 4.94513 11.3883 2.33343 8.16658 2.33343ZM0.666504 8.16682C0.666504 4.02464 4.0244 0.666748 8.16658 0.666748C12.3088 0.666748 15.6666 4.02464 15.6666 8.16682C15.6666 9.93768 15.0529 11.5652 14.0265 12.8483L17.0892 15.9109C17.4146 16.2364 17.4146 16.764 17.0892 17.0895C16.7638 17.4149 16.2361 17.4149 15.9107 17.0895L12.848 14.0268C11.565 15.0532 9.93744 15.6669 8.16658 15.6669C4.0244 15.6669 0.666504 12.309 0.666504 8.16682Z" fill="#999999"/>
</svg>
