<svg width="14" height="14" viewBox="0 0 14 14" fill="none" xmlns="http://www.w3.org/2000/svg">
<path fill-rule="evenodd" clip-rule="evenodd" d="M6.52974 0.529735C6.78943 0.270036 7.21049 0.270036 7.47019 0.529735L10.8035 3.86307C11.0632 4.12277 11.0632 4.54382 10.8035 4.80352C10.5438 5.06322 10.1228 5.06322 9.86307 4.80352L7.66496 2.60541V8.99996C7.66496 9.36723 7.36723 9.66496 6.99996 9.66496C6.63269 9.66496 6.33496 9.36723 6.33496 8.99996V2.60541L4.13685 4.80352C3.87716 5.06322 3.4561 5.06322 3.1964 4.80352C2.9367 4.54382 2.9367 4.12277 3.1964 3.86307L6.52974 0.529735ZM0.999961 8.33496C1.36723 8.33496 1.66496 8.63269 1.66496 8.99996V11.6666C1.66496 11.8439 1.73537 12.0139 1.86071 12.1392C1.98605 12.2645 2.15604 12.335 2.33329 12.335H11.6666C11.8439 12.335 12.0139 12.2645 12.1392 12.1392C12.2645 12.0139 12.335 11.8439 12.335 11.6666V8.99996C12.335 8.63269 12.6327 8.33496 13 8.33496C13.3672 8.33496 13.665 8.63269 13.665 8.99996V11.6666C13.665 12.1966 13.4544 12.7049 13.0797 13.0797C12.7049 13.4544 12.1966 13.665 11.6666 13.665H2.33329C1.8033 13.665 1.29502 13.4544 0.920259 13.0797C0.545499 12.7049 0.334961 12.1966 0.334961 11.6666V8.99996C0.334961 8.63269 0.632692 8.33496 0.999961 8.33496Z" fill="#999999"/>
</svg>
